<?xml version="1.0" encoding="utf-8"?>
<!-- Generator: Adobe Illustrator 21.1.0, SVG Export Plug-In . SVG Version: 6.00 Build 0)  -->
<svg version="1.1" id="Layer_1" xmlns="http://www.w3.org/2000/svg" xmlns:xlink="http://www.w3.org/1999/xlink" x="0px" y="0px"
	 viewBox="0 0 739 376" style="enable-background:new 0 0 739 376;" xml:space="preserve">
<style type="text/css">
	.st0{fill:#003D3F;}
	.st1{fill:#003D40;}
	.st2{fill:#327A7F;}
</style>
<g>
	<path class="st0" d="M145.9,294.1l2.6,6.2h2.7l-9.8-22.9l-10.1,22.9h2.7l2.6-6.2H145.9L145.9,294.1z M144.9,291.8h-7.4l3.7-8.8
		L144.9,291.8L144.9,291.8z M185.3,287.3v-8.9h-2.4v21.9h2.4v-10.7h11.2v10.7h2.4v-21.9h-2.4v8.9H185.3L185.3,287.3z M223.9,278.1
		c-6.2,0-11.4,5.1-11.4,11.3c0,6.3,5.2,11.3,11.4,11.3c6.2,0,11.4-5,11.4-11.3C235.3,283.1,230.2,278.1,223.9,278.1L223.9,278.1z
		 M223.9,280.3c5,0,9,4.1,9,9c0,4.9-4,9-9,9c-5,0-9-4.1-9-9C215,284.4,218.9,280.3,223.9,280.3L223.9,280.3z M247.2,300.3h2.5
		l2.8-14.8h0.1l7,15.7l7-15.7h0.1l2.8,14.8h2.5l-4.4-23.1l-8,18.4l-7.9-18.4L247.2,300.3L247.2,300.3z M284.9,300.3h11.3V298h-8.9
		v-8.6h8.6v-2.3h-8.6v-6.5h8.9v-2.3h-11.3V300.3L284.9,300.3z M330.5,278.4h-2.6l8.4,23l7.1-17.6l7.1,17.6l8.4-23h-2.6l-5.7,16.4
		l-7.1-17.5l-7.1,17.5L330.5,278.4L330.5,278.4z M373.9,278.4h-2.4v21.9h2.4V278.4L373.9,278.4z M394.3,280.7h5.3v-2.3h-13.1v2.3
		h5.3v19.6h2.4V280.7L394.3,280.7z M414.9,287.3v-8.9h-2.4v21.9h2.4v-10.7h11.2v10.7h2.4v-21.9h-2.4v8.9H414.9L414.9,287.3z
		 M462.4,300.3h2.4v-16.9l17.1,17.8v-22.9h-2.4v16.9l-17.1-17.9V300.3L462.4,300.3z M509.2,294.1l2.6,6.2h2.7l-9.8-22.9l-10.1,22.9
		h2.7l2.6-6.2H509.2L509.2,294.1z M508.3,291.8h-7.4l3.7-8.8L508.3,291.8L508.3,291.8z M530.5,280.7h5.3v-2.3h-13.1v2.3h5.3v19.6
		h2.4V280.7L530.5,280.7z M550.9,278.4h-2.4v13.7c0,2.5,0.2,4.5,2.1,6.3c1.5,1.5,3.6,2.2,5.7,2.2c2.2,0,4.4-0.9,5.9-2.5
		c1.7-1.8,1.9-3.7,1.9-6.1v-13.7h-2.4v13c0,1.7,0.1,3.6-1.1,5c-1,1.2-2.7,1.9-4.3,1.9c-1.6,0-3.5-0.8-4.4-2.1c-1-1.4-1-3.2-1-4.9
		V278.4L550.9,278.4z M580.9,280.7h0.7c2.9,0,5.6,0.3,5.6,3.9c0,3.4-2.8,3.9-5.5,3.9h-0.8V280.7L580.9,280.7z M580.9,290.7h0.6
		l6.6,9.6h3l-7-9.8c3.4-0.3,5.5-2.7,5.5-6c0-4.9-3.9-6-8-6h-3.2v21.9h2.4V290.7L580.9,290.7z M604.4,300.3h11.3V298h-8.9v-8.6h8.6
		v-2.3h-8.6v-6.5h8.9v-2.3h-11.3V300.3L604.4,300.3z"/>
	<path class="st1" d="M134.3,76c0-19-15.4-32.2-39.3-32.2H63c2.6,1.8,3.8,4.2,3.8,7.6v90.2c0,3.3-1.2,5.9-3.8,7.7h24
		c-2.6-1.8-3.8-4.4-3.8-7.7v-34H95C119.6,107.6,134.3,93.5,134.3,76L134.3,76z M115.9,75.4c0,15.1-9.5,24.5-21.3,24.5H83.2V51.4h9.4
		C106.4,51.4,115.9,61.8,115.9,75.4L115.9,75.4z M224.6,149.3L179,39l-44.1,105.7c-0.8,2-1.8,3.2-3.6,4.5h13.3
		c-0.9-0.8-1.2-1.8-1.2-2.7c0-0.5,0.2-1.1,0.3-1.5l10.9-26h39.7l9.4,22.7c2,4.7,6.6,7.6,11.3,7.6H224.6L224.6,149.3z M191.1,111.5
		h-33.4l16.8-40.2L191.1,111.5L191.1,111.5z M327.2,149.3l-35.3-51.5c13-3.3,22.7-13.7,22.7-26.1c0-15.3-14.5-27.8-33.2-27.8h-42.4
		c2.7,1.8,3.9,4.2,3.9,7.6v90.2c0,3.3-1.2,5.9-3.9,7.7H263c-2.6-1.8-3.8-4.4-3.8-7.7V51.4h18.4c10.6,0,18.1,9.5,18.1,21.1
		c0,11.8-8.6,21.1-19.2,21.1h-7.1l31.6,45.9c4.2,6,9.7,9.7,17.1,9.7H327.2L327.2,149.3z M422.2,146.3v-16.3
		c-3.8,9.5-13.9,13.9-27,13.9c-23.7,0-42.8-21.3-42.8-47.3c0-26.1,18.6-47.4,42.8-47.4c12.1,0,23.1,4.7,27,14.5V46.9
		c-9.2-3.3-19.6-5.3-30.7-5.3c-31.6,0-58.2,22.4-58.2,55c0,32.3,26.9,55,58.2,55C402.6,151.5,413,149.7,422.2,146.3L422.2,146.3z"/>
	<path class="st1" d="M566.6,147.5l6.8,16v72.8c0,0-0.7,8.6,6.6,8.6c3.9,0,6.9,0,6.9,0v-59.8l27.4-33L587,170v-38.9l-7.5,28.2
		L566.6,147.5L566.6,147.5z"/>
	<path class="st2" d="M545.1,150.6c0,0-7.4,6.1-17,0.9c-8.9-4.8-8.3-13.1-8.3-13.1s7.8-4.4,15.6-0.7
		C544.3,141.9,545.1,150.6,545.1,150.6L545.1,150.6z"/>
	<path class="st2" d="M587,116.6l-5.7,20.9c-4.1-2.8-10.9-8.3-10.4-23.1c0.7-21.1,20.6-34.8,20.6-34.8s16.6,18.2,13.8,38.1
		c-2.1,14.3-10.6,21.2-18.2,22.9V116.6L587,116.6z"/>
	<path class="st2" d="M618.3,147.4l-10.8,6c-0.4-2.2-1-8.9,6.1-15c10.5-9.1,22.7-2.5,22.7-2.5s1.9,13.3-9.3,20.3
		c-8,5.1-15.3,3.7-17.5,1.9L618.3,147.4L618.3,147.4z"/>
	<path class="st2" d="M563.1,139.1l7.1,16.7c-4.5,1.3-11.9-1.2-19.1-7.4c-15.1-12.9-7-28.7-7-28.7s16.9-4.8,26.7,11.3
		c5.2,8.6,6.5,16.4,3.9,20.2L563.1,139.1L563.1,139.1z"/>
	<path class="st0" d="M595.9,151.3c2.7,0,4.9-2.2,4.9-4.9c0-2.7-2.2-4.9-4.9-4.9c-2.7,0-4.9,2.2-4.9,4.9
		C591,149.2,593.2,151.3,595.9,151.3L595.9,151.3z"/>
	<path class="st0" d="M559,111.5c4.6,0,8.4-3.8,8.4-8.4c0-4.6-3.8-8.4-8.4-8.4s-8.4,3.8-8.4,8.4C550.6,107.7,554.4,111.5,559,111.5
		L559,111.5z"/>
	<path class="st0" d="M560.2,175.6c4.7,0,8.6-3.8,8.6-8.6c0-4.7-3.8-8.6-8.6-8.6c-4.7,0-8.6,3.8-8.6,8.6
		C551.6,171.7,555.5,175.6,560.2,175.6L560.2,175.6z"/>
	<path class="st0" d="M613.6,132.7c3.9,0,7-3.1,7-7c0-3.9-3.1-7-7-7c-3.9,0-7,3.1-7,7C606.6,129.6,609.7,132.7,613.6,132.7
		L613.6,132.7z"/>
	<path class="st2" d="M598.6,174.8c0,0,3.9-8.2,16.1-5.5c11.4,2.5,12.6,10.4,12.6,10.4s-5.8,8-16.5,5.6
		C599.9,182.9,598.6,174.8,598.6,174.8L598.6,174.8z"/>
	<path class="st1" d="M122.2,222.3c0-11.9-9.7-20.5-24.3-21.5c9.5-2.8,16.9-10.2,16.9-18.8c0-10.8-9.6-19.1-22.9-19.1H63.7
		c2,1.4,2.9,3.3,2.9,5.9v76.1h26.7C109.4,244.8,122.2,235.4,122.2,222.3L122.2,222.3z M100.7,183.7c0,8.3-5.9,15-14.2,15h-7v-30.1h7
		C95.2,168.7,100.7,173.9,100.7,183.7L100.7,183.7z M107.4,221.8c0,10.2-8.1,17-17.8,17H79.5v-34h10.1
		C99.4,204.8,107.4,211.6,107.4,221.8L107.4,221.8z M220.9,203.8c0-23.6-18.8-42.7-42.9-42.7c-24.1,0-42.7,19.1-42.7,42.7
		c0,23.6,18.7,42.7,42.7,42.7C202.1,246.6,220.9,227.4,220.9,203.8L220.9,203.8z M206.4,205.9c0,19.8-11.9,34.9-26.7,34.9
		c-19.5,0-29.9-22.4-29.9-39.1c0-20,11.9-34.9,26.7-34.9C195.9,166.8,206.4,189.3,206.4,205.9L206.4,205.9z M288.3,175.4v-12.6
		h-64.8v12.6c1.5-3.9,4.9-6.2,10.3-6.2h15.6v69.6c0,2.6-0.9,4.6-2.9,6h18.7c-2-1.4-2.9-3.4-2.9-6v-69.6H278
		C283.4,169.2,286.9,171.5,288.3,175.4L288.3,175.4z M355.6,244.8l-35.5-85.7l-34.3,82.2c-0.6,1.5-1.4,2.5-2.8,3.5h10.3
		c-0.7-0.6-0.9-1.4-0.9-2.1c0-0.4,0.1-0.8,0.2-1.2l8.5-20.2H332l7.3,17.6c1.5,3.6,5.2,5.9,8.8,5.9H355.6L355.6,244.8z M329.5,215.4
		h-25.9l13-31.2L329.5,215.4L329.5,215.4z M445.1,162.8h-12.3c2,1.4,2.9,3.3,2.9,5.9v53.9l-54.6-59.8h-13.1c2,1.4,2.9,3.3,2.9,5.9
		v70.1c0,2.6-0.9,4.6-2.9,6h12.3c-2-1.4-2.9-3.4-2.9-6v-61.2l64.8,71.1v-80.1C442.1,166.1,443.1,164.3,445.1,162.8L445.1,162.8z
		 M540.6,162.8h-12.3c2,1.4,2.9,3.3,2.9,5.9v53.9l-54.6-59.8h-13.2c2,1.4,2.9,3.3,2.9,5.9v70.1c0,2.6-0.9,4.6-2.9,6h12.3
		c-2-1.4-2.9-3.4-2.9-6v-61.2l64.8,71.1v-80.1C537.7,166.1,538.6,164.3,540.6,162.8L540.6,162.8z M684,244.8l-35.5-85.7l-34.3,82.2
		c-0.6,1.5-1.4,2.5-2.8,3.5h10.3c-0.7-0.6-0.9-1.4-0.9-2.1c0-0.4,0.1-0.8,0.2-1.2l8.5-20.2h30.9l7.3,17.6c1.5,3.6,5.2,5.9,8.8,5.9
		H684L684,244.8z M657.9,215.4H632l13-31.2L657.9,215.4L657.9,215.4z"/>
</g>
</svg>
